<svg width="277" height="232" viewBox="0 0 277 232" fill="none" xmlns="http://www.w3.org/2000/svg">
<path d="M36.5514 38.1906C34.0635 36.4302 31.763 34.9058 29.8008 33.6552C32.6709 34.1269 36.1863 34.2257 40.2278 34.0241C48.7675 33.598 59.7439 31.8253 72.1289 29.307C86.5688 26.3708 102.975 22.4094 119.716 18.3673C131.677 15.4791 143.809 12.5498 155.517 9.92375C169.576 6.77025 183.033 4.05114 194.883 2.35511C206.742 0.657862 216.954 -0.00920683 224.536 0.922406C232.158 1.85888 236.895 4.37636 238.209 8.82435C238.873 11.0707 238.696 13.8903 237.479 17.3897C236.263 20.8881 234.02 25.0293 230.604 29.8912C216.777 49.5732 214.699 74.9776 218.097 101.021C221.496 127.071 230.386 153.844 238.589 176.332C240.342 181.137 242.062 185.742 243.691 190.103C245.878 195.959 247.901 201.376 249.619 206.245C252.619 214.752 254.655 221.503 255.004 225.931C255.179 228.161 254.914 229.674 254.26 230.539C253.651 231.345 252.593 231.718 250.775 231.37C248.948 231.02 246.476 229.957 243.245 228.056C240.022 226.16 236.078 223.453 231.315 219.851C193.1 190.955 162.374 178.175 130.452 179.042C98.6442 179.906 65.7401 194.32 23.1558 219.605C23.0534 219.484 22.9233 219.329 22.7679 219.14C22.3427 218.625 21.7278 217.864 20.9715 216.881C19.4589 214.916 17.3818 212.069 15.1275 208.542C10.6163 201.484 5.40771 191.727 2.58346 180.895C-0.240243 170.066 -0.673067 158.195 4.32153 146.874C9.31393 135.558 19.7614 124.718 38.8415 116.009C58.0593 107.237 66.8398 97.4332 69.0217 87.5625C71.202 77.6985 66.7477 67.9642 59.9751 59.4358C53.1939 50.8966 44.0165 43.4727 36.5514 38.1906Z" stroke="white"/>
<path d="M58.1254 42.3442C56.2024 40.8315 54.4184 39.5137 52.8814 38.4207C55.1493 38.8018 57.8884 38.8758 61.011 38.7026C67.8869 38.3212 76.7185 36.7351 86.6747 34.4845C98.2821 31.8606 111.475 28.3194 124.934 24.7067C134.548 22.1261 144.298 19.5091 153.702 17.164C165.001 14.3465 175.814 11.9179 185.333 10.4034C194.861 8.88729 203.053 8.294 209.127 9.12361C215.22 9.95585 218.988 12.1843 220.037 16.1342C220.57 18.1398 220.428 20.6585 219.451 23.7835C218.474 26.907 216.672 30.6046 213.929 34.9464C202.809 52.5425 201.14 75.2462 203.871 98.5148C206.604 121.792 213.749 145.717 220.343 165.811C221.752 170.105 223.135 174.22 224.444 178.117C226.202 183.35 227.828 188.189 229.208 192.54C231.62 200.141 233.256 206.172 233.536 210.128C233.677 212.123 233.462 213.47 232.944 214.233C232.696 214.597 232.376 214.834 231.962 214.955C231.536 215.08 230.981 215.09 230.264 214.938C228.82 214.63 226.848 213.69 224.252 211.993C221.667 210.302 218.5 207.886 214.673 204.668C183.953 178.845 159.226 167.401 133.519 168.177C107.936 168.949 81.4886 181.824 47.3091 204.377C47.2387 204.284 47.1558 204.173 47.0611 204.046C46.7197 203.586 46.2258 202.906 45.6183 202.029C44.4033 200.274 42.7345 197.731 40.9233 194.581C37.2989 188.277 33.1134 179.561 30.8438 169.885C28.5744 160.209 28.227 149.603 32.24 139.491C36.2494 129.388 44.6356 119.717 59.9485 111.946C75.4194 104.096 82.4896 95.3186 84.245 86.4898C85.9977 77.6751 82.418 68.9731 76.9678 61.3434C71.5123 53.7061 64.1295 47.0671 58.1254 42.3442Z" stroke="white"/>
<path d="M69.5229 41.9998C67.6637 40.5075 65.9385 39.2067 64.4508 38.1269C66.6471 38.4998 69.2953 38.5714 72.3107 38.4007C78.9835 38.0231 87.553 36.4525 97.2123 34.2246C108.473 31.6271 121.274 28.1212 134.331 24.5448C143.658 21.9902 153.117 19.3996 162.24 17.0784C173.201 14.2894 183.69 11.8855 192.924 10.3864C202.167 8.88565 210.111 8.29886 216 9.11959C221.904 9.94245 225.555 12.1445 226.573 16.0537C227.091 18.0401 226.953 20.5344 226.004 23.6282C225.057 26.7204 223.309 30.3807 220.647 34.6785C209.859 52.0974 208.241 74.5714 210.89 97.6048C213.541 120.647 220.473 144.33 226.87 164.222C228.237 168.473 229.578 172.547 230.848 176.404C232.554 181.584 234.131 186.375 235.471 190.682C237.81 198.206 239.397 204.176 239.669 208.094C239.807 210.07 239.598 211.404 239.095 212.159C238.855 212.518 238.547 212.75 238.15 212.869C237.743 212.99 237.208 213.001 236.515 212.85C235.118 212.547 233.208 211.618 230.69 209.938C228.182 208.265 225.111 205.874 221.398 202.689C191.594 177.125 167.601 165.792 142.652 166.561C117.829 167.325 92.1717 180.07 59.021 202.388C58.955 202.299 58.8779 202.194 58.7906 202.074C58.4594 201.619 57.9803 200.946 57.391 200.078C56.2123 198.341 54.5934 195.823 52.8363 192.705C49.3202 186.465 45.2596 177.836 43.0576 168.257C40.8558 158.678 40.5188 148.178 44.4122 138.167C48.302 128.166 56.4369 118.594 71.2888 110.904C86.3022 103.13 93.1619 94.4394 94.8647 85.7005C96.5646 76.9768 93.0929 68.3633 87.8046 60.8093C82.5114 53.2484 75.3483 46.6755 69.5229 41.9998Z" stroke="white"/>
<path d="M81.7856 41.9998C79.9264 40.5075 78.2012 39.2067 76.7135 38.1269C78.9098 38.4998 81.558 38.5714 84.5733 38.4007C91.2462 38.0231 99.8157 36.4525 109.475 34.2246C120.736 31.6271 133.536 28.1212 146.594 24.5448C155.921 21.9902 165.38 19.3996 174.502 17.0784C185.464 14.2894 195.953 11.8855 205.186 10.3864C214.43 8.88565 222.374 8.29886 228.263 9.11959C234.167 9.94245 237.818 12.1445 238.836 16.0537C239.353 18.0401 239.215 20.5344 238.267 23.6282C237.319 26.7204 235.572 30.3807 232.91 34.6785C222.122 52.0974 220.503 74.5714 223.153 97.6048C225.804 120.647 232.736 144.33 239.133 164.222C240.5 168.473 241.841 172.547 243.111 176.404C244.817 181.584 246.394 186.375 247.733 190.682C250.073 198.206 251.66 204.176 251.932 208.094C252.069 210.07 251.86 211.404 251.357 212.159C251.118 212.518 250.81 212.75 250.413 212.869C250.005 212.99 249.471 213.001 248.778 212.85C247.381 212.547 245.471 211.618 242.953 209.938C240.445 208.265 237.373 205.874 233.66 202.689C203.857 177.125 179.864 165.792 154.915 166.561C130.092 167.325 104.434 180.07 71.2837 202.388C71.2177 202.299 71.1406 202.194 71.0533 202.074C70.7221 201.619 70.243 200.946 69.6537 200.078C68.475 198.341 66.8561 195.823 65.0989 192.705C61.5829 186.465 57.5223 177.836 55.3203 168.257C53.1185 158.678 52.7815 148.178 56.6749 138.167C60.5647 128.166 68.6996 118.594 83.5515 110.904C98.5649 103.13 105.425 94.4394 107.127 85.7005C108.827 76.9768 105.356 68.3633 100.067 60.8093C94.7741 53.2484 87.611 46.6755 81.7856 41.9998Z" stroke="white"/>
<path d="M94.0492 41.9998C92.19 40.5075 90.4649 39.2067 88.9771 38.1269C91.1735 38.4998 93.8216 38.5714 96.837 38.4007C103.51 38.0231 112.079 36.4525 121.739 34.2246C133 31.6271 145.8 28.1212 158.858 24.5448C168.185 21.9902 177.643 19.3996 186.766 17.0784C197.727 14.2894 208.216 11.8855 217.45 10.3864C226.693 8.88565 234.638 8.29886 240.527 9.11959C246.431 9.94245 250.082 12.1445 251.1 16.0537C251.617 18.0401 251.479 20.5344 250.531 23.6282C249.583 26.7204 247.835 30.3807 245.173 34.6785C234.385 52.0974 232.767 74.5714 235.417 97.6048C238.067 120.647 244.999 144.33 251.396 164.222C252.763 168.473 254.105 172.547 255.375 176.404C257.08 181.584 258.658 186.375 259.997 190.682C262.336 198.206 263.924 204.176 264.196 208.094C264.333 210.07 264.124 211.404 263.621 212.159C263.382 212.518 263.073 212.75 262.677 212.869C262.269 212.99 261.735 213.001 261.041 212.85C259.644 212.547 257.734 211.618 255.216 209.938C252.709 208.265 249.637 205.874 245.924 202.689C216.12 177.125 192.128 165.792 167.178 166.561C142.356 167.325 116.698 180.07 83.5474 202.388C83.4813 202.299 83.4043 202.194 83.317 202.074C82.9858 201.619 82.5067 200.946 81.9174 200.078C80.7386 198.341 79.1197 195.823 77.3626 192.705C73.8466 186.465 69.7859 177.836 67.584 168.257C65.3822 158.678 65.0451 148.178 68.9386 138.167C72.8283 128.166 80.9633 118.594 95.8152 110.904C110.829 103.13 117.688 94.4394 119.391 85.7005C121.091 76.9768 117.619 68.3633 112.331 60.8093C107.038 53.2484 99.8747 46.6755 94.0492 41.9998Z" stroke="white"/>
<path d="M106.312 41.9998C104.453 40.5075 102.728 39.2067 101.24 38.1269C103.437 38.4998 106.085 38.5714 109.1 38.4007C115.773 38.0231 124.343 36.4525 134.002 34.2246C145.263 31.6271 158.063 28.1212 171.121 24.5448C180.448 21.9902 189.906 19.3996 199.029 17.0784C209.991 14.2894 220.48 11.8855 229.713 10.3864C238.957 8.88565 246.901 8.29886 252.79 9.11959C258.694 9.94245 262.345 12.1445 263.363 16.0537C263.88 18.0401 263.742 20.5344 262.794 23.6282C261.846 26.7204 260.098 30.3807 257.437 34.6785C246.649 52.0974 245.03 74.5714 247.68 97.6048C250.33 120.647 257.262 144.33 263.66 164.222C265.027 168.473 266.368 172.547 267.638 176.404C269.343 181.584 270.921 186.375 272.26 190.682C274.6 198.206 276.187 204.176 276.459 208.094C276.596 210.07 276.387 211.404 275.884 212.159C275.645 212.518 275.336 212.75 274.94 212.869C274.532 212.99 273.998 213.001 273.304 212.85C271.907 212.547 269.997 211.618 267.479 209.938C264.972 208.265 261.9 205.874 258.187 202.689C228.384 177.125 204.391 165.792 179.441 166.561C154.619 167.325 128.961 180.07 95.8106 202.388C95.7445 202.299 95.6675 202.194 95.5802 202.074C95.249 201.619 94.7699 200.946 94.1806 200.078C93.0018 198.341 91.3829 195.823 89.6258 192.705C86.1097 186.465 82.0491 177.836 79.8472 168.257C77.6453 158.678 77.3083 148.178 81.2018 138.167C85.0915 128.166 93.2264 118.594 108.078 110.904C123.092 103.13 129.951 94.4394 131.654 85.7005C133.354 76.9768 129.882 68.3633 124.594 60.8093C119.301 53.2484 112.138 46.6755 106.312 41.9998Z" stroke="white"/>
</svg>
