<svg width="1440" height="637" viewBox="0 0 1440 637" fill="none" xmlns="http://www.w3.org/2000/svg">
<path d="M1452.82 568.478C1445.37 603.522 1417.95 632.732 1374.43 655.487C1330.92 678.238 1271.45 694.46 1200.2 703.572C1057.71 721.795 868.311 711.558 665.812 668.507C463.313 625.457 286.134 557.761 163.375 483.145C101.992 445.835 54.2642 406.823 23.7733 368.34C-6.72267 329.85 -19.8851 292.013 -12.4349 256.97C-4.98472 221.926 22.4317 192.716 65.9483 169.961C109.457 147.21 168.927 130.988 240.18 121.876C382.676 103.653 572.071 113.89 774.57 156.94C977.069 199.991 1154.25 267.687 1277.01 342.303C1338.39 379.613 1386.12 418.624 1416.61 457.108C1447.1 495.598 1460.27 533.435 1452.82 568.478Z" stroke="white" stroke-opacity="0.05" stroke-width="2"/>
<path d="M1453.34 566.033C1446.98 595.946 1420.67 620.342 1378.06 638.732C1335.48 657.11 1276.84 669.388 1206.28 675.185C1065.18 686.778 876.642 672.435 674.131 629.382C471.62 586.328 293.553 522.732 169.371 454.74C107.274 420.741 58.7026 385.671 27.2812 351.561C-4.16182 317.427 -18.2735 284.437 -11.9141 254.524C-5.55475 224.612 20.7571 200.215 63.3665 181.825C105.947 163.447 164.584 151.169 235.142 145.372C376.244 133.779 564.781 148.122 767.293 191.175C969.804 234.229 1147.87 297.825 1272.05 365.817C1334.15 399.816 1382.72 434.886 1414.14 468.997C1445.59 503.13 1459.7 536.12 1453.34 566.033Z" stroke="white" stroke-opacity="0.05" stroke-width="2"/>
<path d="M1453.86 563.588C1448.59 588.351 1423.42 607.949 1381.69 621.979C1340.03 635.985 1282.22 644.319 1212.36 646.8C1072.65 651.762 884.971 633.312 682.448 590.256C479.925 547.2 300.97 487.704 175.363 426.337C112.552 395.65 63.1327 364.52 30.7766 334.779C-1.6367 304.986 -16.6599 276.842 -11.3953 252.079C-6.13072 227.316 19.0423 207.718 60.7724 193.687C102.429 179.681 160.238 171.348 230.1 168.866C369.809 163.905 557.49 182.354 760.013 225.41C962.537 268.466 1141.49 327.962 1267.1 389.33C1329.91 420.017 1379.33 451.147 1411.68 480.887C1444.1 510.681 1459.12 538.824 1453.86 563.588Z" stroke="white" stroke-opacity="0.05" stroke-width="2"/>
<path d="M1454.9 558.697C1452.86 568.295 1445.9 576.731 1434.26 583.963C1422.62 591.196 1406.4 597.161 1386.06 601.832C1345.38 611.175 1288.45 615.3 1219.33 614.243C1081.11 612.129 894.342 589.298 691.807 546.24C489.271 503.181 309.369 448.059 182.239 393.759C118.666 366.606 68.3384 339.678 34.9793 314.596C18.2973 302.053 5.90651 290.006 -1.78243 278.664C-9.47068 267.323 -12.3952 256.786 -10.3546 247.188C-8.31407 237.59 -1.35594 229.154 10.2809 221.922C21.9188 214.689 38.1386 208.724 58.4805 204.053C99.1583 194.71 156.088 190.585 225.208 191.642C363.433 193.756 550.2 216.587 752.736 259.645C955.272 302.704 1135.17 357.826 1262.3 412.126C1325.88 439.279 1376.2 466.207 1409.56 491.289C1426.25 503.832 1438.64 515.879 1446.32 527.221C1454.01 538.562 1456.94 549.099 1454.9 558.697Z" stroke="white" stroke-opacity="0.05" stroke-width="2"/>
<path d="M1455.73 554.784C1454.23 561.837 1447.91 567.911 1436.72 572.89C1425.57 577.855 1409.81 581.624 1389.9 584.196C1350.1 589.34 1293.96 589.675 1225.51 585.433C1088.62 576.95 902.671 550.175 700.125 507.114C497.578 464.054 316.822 412.868 188.321 364.93C124.063 340.958 72.913 317.814 38.6447 296.922C21.5049 286.473 8.64234 276.62 0.473643 267.547C-7.719 258.448 -11.0221 250.328 -9.52273 243.276C-8.02335 236.223 -1.70283 230.149 9.48291 225.17C20.636 220.205 36.3945 216.436 56.3027 213.864C96.1061 208.72 152.248 208.385 220.7 212.627C357.59 221.111 543.535 247.885 746.082 290.946C948.628 334.006 1129.38 385.192 1257.89 433.13C1322.14 457.102 1373.29 480.246 1407.56 501.138C1424.7 511.587 1437.56 521.44 1445.73 530.513C1453.93 539.612 1457.23 547.732 1455.73 554.784Z" stroke="white" stroke-opacity="0.05" stroke-width="2"/>
</svg>
