<svg width="192" height="46" viewBox="0 0 192 46" fill="none" xmlns="http://www.w3.org/2000/svg">
<path d="M7 37.5844C5.4087 37.5844 3.88258 37.0576 2.75736 36.1199C1.63214 35.1822 1 33.9105 1 32.5844C1 29.251 7 23.626 7 23.626C7 23.626 13 29.251 13 32.5844C13 33.9105 12.3679 35.1822 11.2426 36.1199C10.1174 37.0576 8.5913 37.5844 7 37.5844Z" fill="#F0C42E"/>
<path d="M43.9788 19.6052C43.9788 21.1965 43.4521 22.7226 42.5144 23.8479C41.5767 24.9731 40.3049 25.6052 38.9788 25.6052C35.6455 25.6052 30.0205 19.6052 30.0205 19.6052C30.0205 19.6052 35.6455 13.6052 38.9788 13.6052C40.3049 13.6052 41.5767 14.2374 42.5144 15.3626C43.4521 16.4878 43.9788 18.0139 43.9788 19.6052Z" fill="#F0C42E"/>
<rect x="8.12891" y="19.102" width="12" height="28" rx="6" transform="rotate(-42.4669 8.12891 19.102)" fill="#F0C42E"/>
<path d="M74.112 21.004H67.504L66.524 24H60L67.252 4.176H74.42L81.644 24H75.092L74.112 21.004ZM72.6 16.328L70.808 10.812L69.016 16.328H72.6ZM99.2683 10.98C99.2683 12.2307 98.9789 13.3693 98.4003 14.396C97.8216 15.404 96.9629 16.2067 95.8243 16.804C94.7043 17.4013 93.3416 17.7 91.7363 17.7H89.2723V24H83.0563V4.176H91.7363C94.1629 4.176 96.0203 4.792 97.3083 6.024C98.6149 7.256 99.2683 8.908 99.2683 10.98ZM91.0363 12.8C92.3243 12.8 92.9683 12.1933 92.9683 10.98C92.9683 9.76667 92.3243 9.16 91.0363 9.16H89.2723V12.8H91.0363ZM117.452 10.98C117.452 12.2307 117.163 13.3693 116.584 14.396C116.005 15.404 115.147 16.2067 114.008 16.804C112.888 17.4013 111.525 17.7 109.92 17.7H107.456V24H101.24V4.176H109.92C112.347 4.176 114.204 4.792 115.492 6.024C116.799 7.256 117.452 8.908 117.452 10.98ZM109.22 12.8C110.508 12.8 111.152 12.1933 111.152 10.98C111.152 9.76667 110.508 9.16 109.22 9.16H107.456V12.8H109.22ZM129.083 24.196C127.217 24.196 125.499 23.7573 123.931 22.88C122.382 22.0027 121.15 20.7893 120.235 19.24C119.321 17.6907 118.863 15.9453 118.863 14.004C118.863 12.0627 119.321 10.3173 120.235 8.768C121.15 7.21867 122.382 6.01467 123.931 5.156C125.499 4.27867 127.217 3.84 129.083 3.84C130.95 3.84 132.658 4.27867 134.207 5.156C135.757 6.01467 136.979 7.21867 137.875 8.768C138.79 10.3173 139.247 12.0627 139.247 14.004C139.247 15.9453 138.79 17.6907 137.875 19.24C136.979 20.7893 135.747 22.0027 134.179 22.88C132.63 23.7573 130.931 24.196 129.083 24.196ZM129.083 18.4C130.315 18.4 131.267 18.008 131.939 17.224C132.611 16.4213 132.947 15.348 132.947 14.004C132.947 12.6413 132.611 11.568 131.939 10.784C131.267 9.98133 130.315 9.58 129.083 9.58C127.833 9.58 126.871 9.98133 126.199 10.784C125.527 11.568 125.191 12.6413 125.191 14.004C125.191 15.348 125.527 16.4213 126.199 17.224C126.871 18.008 127.833 18.4 129.083 18.4ZM151.458 24L147.734 16.888H147.706V24H141.49V4.176H150.73C152.335 4.176 153.707 4.46533 154.846 5.044C155.985 5.604 156.834 6.37867 157.394 7.368C157.973 8.33867 158.262 9.44 158.262 10.672C158.262 11.9973 157.889 13.1733 157.142 14.2C156.414 15.2267 155.359 15.964 153.978 16.412L158.29 24H151.458ZM147.706 12.744H150.17C150.767 12.744 151.215 12.6133 151.514 12.352C151.813 12.072 151.962 11.6427 151.962 11.064C151.962 10.5413 151.803 10.1307 151.486 9.832C151.187 9.53333 150.749 9.384 150.17 9.384H147.706V12.744ZM175.816 4.176V9.104H170.552V24H164.336V9.104H159.128V4.176H175.816ZM183.718 9.132V11.568H189.878V16.244H183.718V19.044H190.718V24H177.502V4.176H190.718V9.132H183.718Z" fill="white"/>
<path d="M64.704 32.848C65.92 32.848 66.9707 33.0773 67.856 33.536C68.752 33.984 69.4347 34.6293 69.904 35.472C70.384 36.3147 70.624 37.3067 70.624 38.448C70.624 39.5893 70.384 40.5813 69.904 41.424C69.4347 42.256 68.752 42.896 67.856 43.344C66.9707 43.7813 65.92 44 64.704 44H61.232V32.848H64.704ZM64.704 42.8C66.144 42.8 67.2427 42.4213 68 41.664C68.7573 40.896 69.136 39.824 69.136 38.448C69.136 37.0613 68.752 35.9787 67.984 35.2C67.2267 34.4213 66.1333 34.032 64.704 34.032H62.688V42.8H64.704ZM82.8005 34.032V37.76H86.8645V38.96H82.8005V42.8H87.3445V44H81.3445V32.832H87.3445V34.032H82.8005ZM99.8036 42.816H103.708V44H98.3476V32.848H99.8036V42.816ZM115.51 32.848V44H114.054V32.848H115.51ZM136.007 32.848L131.799 44H130.119L125.911 32.848H127.463L130.967 42.464L134.471 32.848H136.007ZM147.86 34.032V37.76H151.924V38.96H147.86V42.8H152.404V44H146.404V32.832H152.404V34.032H147.86ZM169.279 44L166.623 39.44H164.863V44H163.407V32.848H167.007C167.85 32.848 168.559 32.992 169.135 33.28C169.722 33.568 170.159 33.9573 170.447 34.448C170.735 34.9387 170.879 35.4987 170.879 36.128C170.879 36.896 170.655 37.5733 170.207 38.16C169.77 38.7467 169.108 39.136 168.223 39.328L171.023 44H169.279ZM164.863 38.272H167.007C167.796 38.272 168.388 38.08 168.783 37.696C169.178 37.3013 169.375 36.7787 169.375 36.128C169.375 35.4667 169.178 34.9547 168.783 34.592C168.399 34.2293 167.807 34.048 167.007 34.048H164.863V38.272ZM189.749 32.848L186.117 39.792V44H184.661V39.792L181.013 32.848H182.629L185.381 38.496L188.133 32.848H189.749Z" fill="#F0C42E"/>
</svg>
