<svg width="59" height="15" viewBox="0 0 59 15" fill="none" xmlns="http://www.w3.org/2000/svg">
<path d="M2.15137 11.9817C1.66237 11.9817 1.19341 11.8198 0.847639 11.5316C0.501869 11.2435 0.307617 10.8527 0.307617 10.4452C0.307617 9.4209 2.15137 7.69238 2.15137 7.69238C2.15137 7.69238 3.99512 9.4209 3.99512 10.4452C3.99512 10.8527 3.80087 11.2435 3.4551 11.5316C3.10933 11.8198 2.64036 11.9817 2.15137 11.9817Z" fill="#F0C42E"/>
<path d="M13.5139 6.45654C13.5139 6.94554 13.352 7.4145 13.0639 7.76027C12.7757 8.10604 12.3849 8.30029 11.9774 8.30029C10.9531 8.30029 9.22461 6.45654 9.22461 6.45654C9.22461 6.45654 10.9531 4.61279 11.9774 4.61279C12.3849 4.61279 12.7757 4.80704 13.0639 5.15281C13.352 5.49858 13.5139 5.96755 13.5139 6.45654Z" fill="#F0C42E"/>
<rect x="2.49805" y="6.30225" width="3.6875" height="8.60417" rx="1.84375" transform="rotate(-42.4669 2.49805 6.30225)" fill="#F0C42E"/>
<path d="M22.774 7.51148H20.7434L20.4423 8.43213H18.4375L20.666 2.34038H22.8686L25.0885 8.43213H23.0751L22.774 7.51148ZM22.3094 6.07459L21.7587 4.37957L21.208 6.07459H22.3094ZM30.5043 4.43119C30.5043 4.81551 30.4154 5.16541 30.2376 5.4809C30.0598 5.79065 29.7959 6.0373 29.446 6.22086C29.1018 6.40441 28.6831 6.49619 28.1898 6.49619H27.4326V8.43213H25.5225V2.34038H28.1898C28.9355 2.34038 29.5062 2.52967 29.902 2.90825C30.3035 3.28684 30.5043 3.79448 30.5043 4.43119ZM27.9747 4.99046C28.3705 4.99046 28.5684 4.80404 28.5684 4.43119C28.5684 4.05834 28.3705 3.87192 27.9747 3.87192H27.4326V4.99046H27.9747ZM36.092 4.43119C36.092 4.81551 36.0031 5.16541 35.8252 5.4809C35.6474 5.79065 35.3836 6.0373 35.0337 6.22086C34.6895 6.40441 34.2708 6.49619 33.7775 6.49619H33.0203V8.43213H31.1102V2.34038H33.7775C34.5231 2.34038 35.0939 2.52967 35.4897 2.90825C35.8912 3.28684 36.092 3.79448 36.092 4.43119ZM33.5623 4.99046C33.9581 4.99046 34.156 4.80404 34.156 4.43119C34.156 4.05834 33.9581 3.87192 33.5623 3.87192H33.0203V4.99046H33.5623ZM39.6663 8.49236C39.0927 8.49236 38.5649 8.35756 38.0831 8.08796C37.607 7.81837 37.2284 7.44552 36.9473 6.96942C36.6663 6.49332 36.5257 5.957 36.5257 5.36044C36.5257 4.76389 36.6663 4.22756 36.9473 3.75146C37.2284 3.27537 37.607 2.90539 38.0831 2.64152C38.5649 2.37193 39.0927 2.23713 39.6663 2.23713C40.2399 2.23713 40.7647 2.37193 41.2408 2.64152C41.7169 2.90539 42.0926 3.27537 42.368 3.75146C42.649 4.22756 42.7896 4.76389 42.7896 5.36044C42.7896 5.957 42.649 6.49332 42.368 6.96942C42.0926 7.44552 41.7141 7.81837 41.2322 8.08796C40.7561 8.35756 40.2341 8.49236 39.6663 8.49236ZM39.6663 6.7113C40.0448 6.7113 40.3374 6.59084 40.5439 6.34992C40.7504 6.10327 40.8536 5.77344 40.8536 5.36044C40.8536 4.94171 40.7504 4.61188 40.5439 4.37096C40.3374 4.12431 40.0448 4.00098 39.6663 4.00098C39.2819 4.00098 38.9865 4.12431 38.78 4.37096C38.5735 4.61188 38.4703 4.94171 38.4703 5.36044C38.4703 5.77344 38.5735 6.10327 38.78 6.34992C38.9865 6.59084 39.2819 6.7113 39.6663 6.7113ZM46.5417 8.43213L45.3974 6.24667H45.3888V8.43213H43.4786V2.34038H46.318C46.8113 2.34038 47.2329 2.42929 47.5828 2.60711C47.9327 2.77919 48.1937 3.01724 48.3658 3.32125C48.5436 3.61953 48.6325 3.95796 48.6325 4.33655C48.6325 4.74381 48.5178 5.10518 48.2884 5.42067C48.0647 5.73616 47.7406 5.96273 47.3161 6.1004L48.6411 8.43213H46.5417ZM45.3888 4.97325H46.1459C46.3295 4.97325 46.4672 4.9331 46.5589 4.8528C46.6507 4.76675 46.6966 4.63482 46.6966 4.457C46.6966 4.29639 46.6478 4.1702 46.5503 4.07842C46.4586 3.98664 46.3238 3.94075 46.1459 3.94075H45.3888V4.97325ZM54.0267 2.34038V3.85471H52.4091V8.43213H50.499V3.85471H48.8986V2.34038H54.0267ZM56.4549 3.86332V4.61188H58.3478V6.04877H56.4549V6.90919H58.6059V8.43213H54.5447V2.34038H58.6059V3.86332H56.4549Z" fill="white"/>
<path d="M19.883 10.224C20.2567 10.224 20.5795 10.2944 20.8516 10.4354C21.1269 10.573 21.3367 10.7714 21.4809 11.0303C21.6284 11.2892 21.7022 11.5941 21.7022 11.9448C21.7022 12.2955 21.6284 12.6004 21.4809 12.8593C21.3367 13.115 21.1269 13.3116 20.8516 13.4493C20.5795 13.5837 20.2567 13.6509 19.883 13.6509H18.8161V10.224H19.883ZM19.883 13.2821C20.3255 13.2821 20.6631 13.1658 20.8958 12.933C21.1286 12.697 21.2449 12.3676 21.2449 11.9448C21.2449 11.5187 21.1269 11.186 20.8909 10.9467C20.6582 10.7074 20.3222 10.5878 19.883 10.5878H19.2635V13.2821H19.883ZM25.4439 10.5878V11.7334H26.6927V12.1021H25.4439V13.2821H26.8402V13.6509H24.9965V10.219H26.8402V10.5878H25.4439ZM30.6688 13.287H31.8685V13.6509H30.2214V10.224H30.6688V13.287ZM35.4952 10.224V13.6509H35.0478V10.224H35.4952ZM41.7939 10.224L40.5008 13.6509H39.9846L38.6915 10.224H39.1684L40.2452 13.1789L41.3219 10.224H41.7939ZM45.4361 10.5878V11.7334H46.6849V12.1021H45.4361V13.2821H46.8324V13.6509H44.9887V10.219H46.8324V10.5878H45.4361ZM52.018 13.6509L51.2019 12.2496H50.661V13.6509H50.2136V10.224H51.3199C51.5788 10.224 51.7968 10.2682 51.9738 10.3567C52.1541 10.4452 52.2884 10.5649 52.3769 10.7156C52.4654 10.8664 52.5097 11.0385 52.5097 11.2319C52.5097 11.4679 52.4409 11.676 52.3032 11.8563C52.1688 12.0366 51.9656 12.1562 51.6935 12.2152L52.5539 13.6509H52.018ZM50.661 11.8907H51.3199C51.5624 11.8907 51.7443 11.8317 51.8656 11.7137C51.9869 11.5924 52.0475 11.4318 52.0475 11.2319C52.0475 11.0287 51.9869 10.8713 51.8656 10.7599C51.7476 10.6484 51.5657 10.5927 51.3199 10.5927H50.661V11.8907ZM58.3084 10.224L57.1923 12.3578V13.6509H56.7449V12.3578L55.6239 10.224H56.1205L56.9661 11.9595L57.8118 10.224H58.3084Z" fill="#F0C42E"/>
</svg>
