<svg width="22" height="12" viewBox="0 0 22 12" fill="none" xmlns="http://www.w3.org/2000/svg">
<path d="M21.2301 6.34456C21.1845 6.45496 21.1186 6.55443 21.0358 6.63723L16.2358 11.4372C16.0606 11.6124 15.8302 11.7012 15.5998 11.7012C15.3694 11.7012 15.139 11.6136 14.9638 11.4372C14.6122 11.0856 14.6122 10.5156 14.9638 10.164L18.2277 6.90003H1.1998C0.703005 6.90003 0.299805 6.49683 0.299805 6.00003C0.299805 5.50323 0.703005 5.10003 1.1998 5.10003H18.2266L14.9626 1.83606C14.611 1.48446 14.611 0.914418 14.9626 0.562818C15.3142 0.211218 15.8842 0.211218 16.2358 0.562818L21.0358 5.36282C21.1186 5.44562 21.1845 5.54509 21.2301 5.65549C21.3213 5.87629 21.3213 6.12376 21.2301 6.34456Z" fill="white"/>
</svg>
