<svg width="81" height="80" viewBox="0 0 81 80" fill="none" xmlns="http://www.w3.org/2000/svg">
<circle cx="40.5" cy="40" r="40" fill="#FFBB00"/>
<circle cx="40.5" cy="40" r="35" fill="#013402"/>
<path d="M49.8002 41.25C49.5252 41.25 49.2377 41.1625 48.9627 41.1C48.4059 40.9773 47.8586 40.8143 47.3252 40.6125C46.7454 40.4015 46.1079 40.4125 45.5356 40.6432C44.9633 40.874 44.4966 41.3083 44.2252 41.8625L43.9502 42.425C42.7327 41.7477 41.614 40.9065 40.6252 39.925C39.6437 38.9363 38.8025 37.8175 38.1252 36.6L38.6502 36.25C39.2045 35.9786 39.6387 35.5119 39.8695 34.9396C40.1003 34.3673 40.1112 33.7299 39.9002 33.15C39.7018 32.6155 39.5389 32.0685 39.4127 31.5125C39.3502 31.2375 39.3002 30.95 39.2627 30.6625C39.111 29.782 38.6498 28.9847 37.9623 28.414C37.2748 27.8434 36.4061 27.537 35.5127 27.55H31.7627C31.224 27.5449 30.6906 27.656 30.1986 27.8757C29.7067 28.0953 29.2679 28.4184 28.912 28.8228C28.5562 29.2273 28.2917 29.7037 28.1365 30.2196C27.9813 30.7355 27.9391 31.2788 28.0127 31.8125C28.6787 37.0492 31.0703 41.9148 34.8098 45.6408C38.5493 49.3667 43.4236 51.7406 48.6627 52.3875H49.1377C50.0595 52.3888 50.9495 52.0506 51.6377 51.4375C52.0332 51.0838 52.3491 50.6502 52.5646 50.1654C52.7801 49.6806 52.8902 49.1555 52.8877 48.625V44.875C52.8724 44.0067 52.5563 43.1707 51.9932 42.5096C51.4301 41.8485 50.655 41.4033 49.8002 41.25ZM50.4252 48.75C50.425 48.9275 50.387 49.1029 50.3137 49.2645C50.2404 49.4262 50.1336 49.5704 50.0002 49.6875C49.861 49.8087 49.6977 49.8993 49.5211 49.9531C49.3445 50.007 49.1585 50.0229 48.9752 50C44.2939 49.3997 39.9455 47.2581 36.6161 43.9129C33.2867 40.5676 31.1658 36.2092 30.5877 31.525C30.5679 31.3419 30.5853 31.1567 30.639 30.9805C30.6927 30.8043 30.7816 30.6408 30.9002 30.5C31.0174 30.3667 31.1616 30.2598 31.3232 30.1865C31.4849 30.1132 31.6603 30.0752 31.8377 30.075H35.5877C35.8784 30.0685 36.1623 30.1636 36.3904 30.3438C36.6186 30.5241 36.7768 30.7782 36.8377 31.0625C36.8877 31.4042 36.9502 31.7417 37.0252 32.075C37.1696 32.7339 37.3618 33.3815 37.6002 34.0125L35.8502 34.825C35.7006 34.8936 35.566 34.9912 35.4542 35.112C35.3424 35.2328 35.2555 35.3745 35.1986 35.529C35.1417 35.6835 35.1158 35.8477 35.1226 36.0121C35.1293 36.1766 35.1684 36.3382 35.2377 36.4875C37.0367 40.3409 40.1343 43.4385 43.9877 45.2375C44.2921 45.3625 44.6334 45.3625 44.9377 45.2375C45.0936 45.1817 45.2369 45.0956 45.3592 44.984C45.4815 44.8724 45.5805 44.7376 45.6502 44.5875L46.4252 42.8375C47.0715 43.0686 47.731 43.2606 48.4002 43.4125C48.7336 43.4875 49.0711 43.55 49.4127 43.6C49.697 43.661 49.9512 43.8192 50.1314 44.0473C50.3116 44.2755 50.4067 44.5593 50.4002 44.85L50.4252 48.75Z" fill="white"/>
</svg>
