<svg width="80" height="80" viewBox="0 0 80 80" fill="none" xmlns="http://www.w3.org/2000/svg">
<circle cx="40" cy="40" r="40" fill="#FFBB00"/>
<circle cx="40" cy="40" r="35" fill="#013402"/>
<path d="M26.6669 49.6667L25.1169 49.05C25.0061 49.3287 24.9726 49.632 25.0198 49.9282C25.0671 50.2243 25.1934 50.5022 25.3853 50.7325C25.5773 50.9629 25.8279 51.1372 26.1106 51.2371C26.3933 51.3369 26.6978 51.3587 26.9919 51.3L26.6669 49.6667ZM34.5102 48.1067L35.3002 46.6383L34.7719 46.355L34.1852 46.4717L34.5102 48.1067ZM29.3735 42.8617L30.9235 43.4783L31.1952 42.7883L30.8685 42.1233L29.3735 42.8617ZM51.6669 38C51.6669 43.41 46.9119 48 40.7835 48V51.3333C48.5185 51.3333 55.0002 45.4767 55.0002 38H51.6669ZM29.9019 38C29.9019 32.59 34.6585 28 40.7852 28V24.6667C33.0502 24.6667 26.5669 30.5233 26.5669 38H29.9019ZM40.7852 28C46.9119 28 51.6669 32.59 51.6669 38H55.0002C55.0002 30.5233 48.5202 24.6667 40.7852 24.6667V28ZM40.7835 48C38.7752 48 36.9052 47.5 35.3002 46.6383L33.7202 49.5733C35.8933 50.7356 38.3192 51.3403 40.7835 51.3333V48ZM26.9919 51.3L34.8352 49.74L34.1852 46.4717L26.3419 48.0317L26.9919 51.3017V51.3ZM30.8685 42.1233C30.232 40.842 29.9022 39.4307 29.9019 38H26.5669C26.5669 40 27.0369 41.8967 27.8769 43.6L30.8685 42.1233ZM27.8252 42.245L25.1169 49.0517L28.2135 50.2817L30.9202 43.4767L27.8235 42.245H27.8252Z" fill="white"/>
<path d="M35.0007 39.6666C35.9211 39.6666 36.6673 38.9205 36.6673 38C36.6673 37.0795 35.9211 36.3333 35.0007 36.3333C34.0802 36.3333 33.334 37.0795 33.334 38C33.334 38.9205 34.0802 39.6666 35.0007 39.6666Z" fill="white"/>
<path d="M40.8337 39.6666C41.7541 39.6666 42.5003 38.9205 42.5003 38C42.5003 37.0795 41.7541 36.3333 40.8337 36.3333C39.9132 36.3333 39.167 37.0795 39.167 38C39.167 38.9205 39.9132 39.6666 40.8337 39.6666Z" fill="white"/>
<path d="M46.6667 39.6666C47.5871 39.6666 48.3333 38.9205 48.3333 38C48.3333 37.0795 47.5871 36.3333 46.6667 36.3333C45.7462 36.3333 45 37.0795 45 38C45 38.9205 45.7462 39.6666 46.6667 39.6666Z" fill="white"/>
</svg>
