<svg width="35" height="35" viewBox="0 0 35 35" fill="none" xmlns="http://www.w3.org/2000/svg">
<path d="M5.83333 27.7083L4.47713 27.1687C4.38023 27.4125 4.3509 27.678 4.39224 27.9371C4.43358 28.1962 4.54406 28.4393 4.71202 28.6409C4.87999 28.8425 5.09922 28.995 5.34661 29.0824C5.59401 29.1697 5.86039 29.1888 6.11769 29.1374L5.83333 27.7083ZM12.696 26.3433L13.3872 25.0585L12.9249 24.8105L12.4116 24.9126L12.696 26.3433ZM8.20157 21.7539L9.55776 22.2935L9.79546 21.6897L9.50964 21.1078L8.20157 21.7539ZM27.7075 17.4999C27.7075 22.2337 23.547 26.2499 18.1849 26.2499V29.1666C24.9528 29.1666 30.624 24.042 30.624 17.4999H27.7075ZM8.66384 17.4999C8.66384 12.7662 12.8258 8.74992 18.1864 8.74992V5.83325C11.4185 5.83325 5.74583 10.9578 5.74583 17.4999H8.66384ZM18.1864 8.74992C23.547 8.74992 27.7075 12.7662 27.7075 17.4999H30.624C30.624 10.9578 24.9542 5.83325 18.1864 5.83325V8.74992ZM18.1849 26.2499C16.4277 26.2499 14.7915 25.8124 13.3872 25.0585L12.0048 27.6266C13.9061 28.6436 16.0287 29.1727 18.1849 29.1666V26.2499ZM6.11769 29.1374L12.9803 27.7724L12.4116 24.9126L5.54896 26.2776L6.11769 29.1389V29.1374ZM9.50964 21.1078C8.95269 19.9867 8.66417 18.7518 8.66384 17.4999H5.74583C5.74583 19.2499 6.15706 20.9095 6.89204 22.3999L9.50964 21.1078ZM6.84683 21.2143L4.47713 27.1701L7.18661 28.2464L9.55485 22.292L6.84537 21.2143H6.84683Z" fill="white"/>
<path d="M13.1253 18.9584C13.9307 18.9584 14.5835 18.3055 14.5835 17.5001C14.5835 16.6947 13.9307 16.0417 13.1253 16.0417C12.3199 16.0417 11.667 16.6947 11.667 17.5001C11.667 18.3055 12.3199 18.9584 13.1253 18.9584Z" fill="white"/>
<path d="M18.2298 18.9584C19.0351 18.9584 19.688 18.3055 19.688 17.5001C19.688 16.6947 19.0351 16.0417 18.2298 16.0417C17.4244 16.0417 16.7715 16.6947 16.7715 17.5001C16.7715 18.3055 17.4244 18.9584 18.2298 18.9584Z" fill="white"/>
<path d="M23.3323 18.9584C24.1377 18.9584 24.7906 18.3055 24.7906 17.5001C24.7906 16.6947 24.1377 16.0417 23.3323 16.0417C22.5269 16.0417 21.874 16.6947 21.874 17.5001C21.874 18.3055 22.5269 18.9584 23.3323 18.9584Z" fill="white"/>
</svg>
