<svg width="71" height="71" viewBox="0 0 71 71" fill="none" xmlns="http://www.w3.org/2000/svg">
<path d="M29.6667 15.0833L35.5 9.25M23.8333 47.1667L47.1667 23.8333M35.5 61.75L41.3333 55.9167M48.625 55.9167C50.5589 55.9167 52.4135 55.1484 53.781 53.781C55.1484 52.4135 55.9167 50.5589 55.9167 48.625C55.9167 46.6911 55.1484 44.8365 53.781 43.469C52.4135 42.1016 50.5589 41.3333 48.625 41.3333C46.6911 41.3333 44.8365 42.1016 43.469 43.469C42.1016 44.8365 41.3333 46.6911 41.3333 48.625C41.3333 50.5589 42.1016 52.4135 43.469 53.781C44.8365 55.1484 46.6911 55.9167 48.625 55.9167ZM22.375 29.6667C24.3089 29.6667 26.1635 28.8984 27.531 27.531C28.8984 26.1635 29.6667 24.3089 29.6667 22.375C29.6667 20.4411 28.8984 18.5865 27.531 17.219C26.1635 15.8516 24.3089 15.0833 22.375 15.0833C20.4411 15.0833 18.5865 15.8516 17.219 17.219C15.8516 18.5865 15.0833 20.4411 15.0833 22.375C15.0833 24.3089 15.8516 26.1635 17.219 27.531C18.5865 28.8984 20.4411 29.6667 22.375 29.6667ZM16.5417 61.75C18.4755 61.75 20.3302 60.9818 21.6977 59.6143C23.0651 58.2469 23.8333 56.3922 23.8333 54.4583C23.8333 52.5245 23.0651 50.6698 21.6977 49.3023C20.3302 47.9349 18.4755 47.1667 16.5417 47.1667C14.6078 47.1667 12.7531 47.9349 11.3857 49.3023C10.0182 50.6698 9.25 52.5245 9.25 54.4583C9.25 56.3922 10.0182 58.2469 11.3857 59.6143C12.7531 60.9818 14.6078 61.75 16.5417 61.75ZM54.4583 23.8333C56.3922 23.8333 58.2469 23.0651 59.6143 21.6977C60.9818 20.3302 61.75 18.4755 61.75 16.5417C61.75 14.6078 60.9818 12.7531 59.6143 11.3857C58.2469 10.0182 56.3922 9.25 54.4583 9.25C52.5245 9.25 50.6698 10.0182 49.3023 11.3857C47.9349 12.7531 47.1667 14.6078 47.1667 16.5417C47.1667 18.4755 47.9349 20.3302 49.3023 21.6977C50.6698 23.0651 52.5245 23.8333 54.4583 23.8333Z" stroke="#FFBB00" stroke-width="5" stroke-linecap="round" stroke-linejoin="round"/>
</svg>
