<svg width="71" height="70" viewBox="0 0 71 70" fill="none" xmlns="http://www.w3.org/2000/svg">
<path d="M29.6667 14.5833L35.5 8.75M23.8333 46.6667L47.1667 23.3333M35.5 61.25L41.3333 55.4167M48.625 55.4167C50.5589 55.4167 52.4135 54.6484 53.781 53.281C55.1484 51.9135 55.9167 50.0589 55.9167 48.125C55.9167 46.1911 55.1484 44.3365 53.781 42.969C52.4135 41.6016 50.5589 40.8333 48.625 40.8333C46.6911 40.8333 44.8365 41.6016 43.469 42.969C42.1016 44.3365 41.3333 46.1911 41.3333 48.125C41.3333 50.0589 42.1016 51.9135 43.469 53.281C44.8365 54.6484 46.6911 55.4167 48.625 55.4167ZM22.375 29.1667C24.3089 29.1667 26.1635 28.3984 27.531 27.031C28.8984 25.6635 29.6667 23.8089 29.6667 21.875C29.6667 19.9411 28.8984 18.0865 27.531 16.719C26.1635 15.3516 24.3089 14.5833 22.375 14.5833C20.4411 14.5833 18.5865 15.3516 17.219 16.719C15.8516 18.0865 15.0833 19.9411 15.0833 21.875C15.0833 23.8089 15.8516 25.6635 17.219 27.031C18.5865 28.3984 20.4411 29.1667 22.375 29.1667ZM16.5417 61.25C18.4755 61.25 20.3302 60.4818 21.6977 59.1143C23.0651 57.7469 23.8333 55.8922 23.8333 53.9583C23.8333 52.0245 23.0651 50.1698 21.6977 48.8023C20.3302 47.4349 18.4755 46.6667 16.5417 46.6667C14.6078 46.6667 12.7531 47.4349 11.3857 48.8023C10.0182 50.1698 9.25 52.0245 9.25 53.9583C9.25 55.8922 10.0182 57.7469 11.3857 59.1143C12.7531 60.4818 14.6078 61.25 16.5417 61.25ZM54.4583 23.3333C56.3922 23.3333 58.2469 22.5651 59.6143 21.1977C60.9818 19.8302 61.75 17.9755 61.75 16.0417C61.75 14.1078 60.9818 12.2531 59.6143 10.8857C58.2469 9.51823 56.3922 8.75 54.4583 8.75C52.5245 8.75 50.6698 9.51823 49.3023 10.8857C47.9349 12.2531 47.1667 14.1078 47.1667 16.0417C47.1667 17.9755 47.9349 19.8302 49.3023 21.1977C50.6698 22.5651 52.5245 23.3333 54.4583 23.3333Z" stroke="#013402" stroke-width="5" stroke-linecap="round" stroke-linejoin="round"/>
</svg>
