<svg width="38" height="38" viewBox="0 0 38 38" fill="none" xmlns="http://www.w3.org/2000/svg">
<g clip-path="url(#clip0_295_71)">
<path d="M29.0938 0H8.90625C3.98746 0 0 3.98746 0 8.90625V29.0938C0 34.0125 3.98746 38 8.90625 38H29.0938C34.0125 38 38 34.0125 38 29.0938V8.90625C38 3.98746 34.0125 0 29.0938 0Z" fill="url(#paint0_radial_295_71)"/>
<path d="M29.0938 0H8.90625C3.98746 0 0 3.98746 0 8.90625V29.0938C0 34.0125 3.98746 38 8.90625 38H29.0938C34.0125 38 38 34.0125 38 29.0938V8.90625C38 3.98746 34.0125 0 29.0938 0Z" fill="url(#paint1_radial_295_71)"/>
<path d="M19.0013 4.15625C14.9701 4.15625 14.464 4.17391 12.8808 4.24591C11.3005 4.31834 10.2219 4.56846 9.27809 4.93555C8.30166 5.31466 7.47353 5.82187 6.64852 6.64718C5.82276 7.47234 5.31555 8.30048 4.93525 9.27645C4.56713 10.2205 4.31671 11.2997 4.24561 12.8792C4.1748 14.4626 4.15625 14.9687 4.15625 19.0001C4.15625 23.0316 4.17406 23.536 4.24591 25.1192C4.31864 26.6995 4.56876 27.7781 4.93555 28.7219C5.31495 29.6983 5.82216 30.5265 6.64748 31.3515C7.47234 32.1772 8.30048 32.6856 9.27616 33.0648C10.2207 33.4318 11.2995 33.682 12.8795 33.7544C14.4629 33.8264 14.9684 33.844 18.9996 33.844C23.0313 33.844 23.5357 33.8264 25.1189 33.7544C26.6992 33.682 27.779 33.4318 28.7235 33.0648C29.6995 32.6856 30.5265 32.1772 31.3512 31.3515C32.1769 30.5265 32.684 29.6983 33.0645 28.7224C33.4293 27.7781 33.6799 26.6992 33.7541 25.1195C33.8252 23.5362 33.8438 23.0316 33.8438 19.0001C33.8438 14.9687 33.8252 14.4629 33.7541 12.8795C33.6799 11.2992 33.4293 10.2207 33.0645 9.2769C32.684 8.30048 32.1769 7.47234 31.3512 6.64718C30.5256 5.82157 29.6998 5.31436 28.7227 4.9357C27.7764 4.56846 26.6971 4.3182 25.1168 4.24591C23.5334 4.17391 23.0293 4.15625 18.9967 4.15625H19.0013ZM17.6697 6.83124C18.065 6.83065 18.506 6.83124 19.0013 6.83124C22.9648 6.83124 23.4344 6.84549 24.9995 6.91659C26.4468 6.9828 27.2323 7.2246 27.7556 7.42781C28.4483 7.69678 28.9422 8.01845 29.4614 8.53813C29.981 9.05766 30.3025 9.5524 30.5722 10.2452C30.7754 10.7677 31.0175 11.5532 31.0834 13.0005C31.1545 14.5653 31.1699 15.0352 31.1699 18.9967C31.1699 22.9582 31.1545 23.4283 31.0834 24.993C31.0172 26.4403 30.7754 27.2258 30.5722 27.7485C30.3032 28.4412 29.981 28.9345 29.4614 29.4537C28.9419 29.9732 28.4486 30.2948 27.7556 30.5639C27.2329 30.768 26.4468 31.0092 24.9995 31.0754C23.4347 31.1465 22.9648 31.1619 19.0013 31.1619C15.0378 31.1619 14.568 31.1465 13.0033 31.0754C11.556 31.0086 10.7705 30.7668 10.2468 30.5636C9.55418 30.2945 9.05929 29.9729 8.53976 29.4534C8.02023 28.9339 7.69871 28.4403 7.429 27.7473C7.22579 27.2246 6.98369 26.4391 6.91778 24.9918C6.84668 23.427 6.83243 22.957 6.83243 18.993C6.83243 15.0291 6.84668 14.5616 6.91778 12.9967C6.98398 11.5495 7.22579 10.7639 7.429 10.2407C7.69812 9.54795 8.02023 9.0532 8.53991 8.53367C9.05944 8.01414 9.55418 7.69248 10.2469 7.42291C10.7702 7.21881 11.556 6.9776 13.0033 6.9111C14.3726 6.8492 14.9033 6.83065 17.6697 6.82753V6.83124ZM26.9249 9.2959C25.9415 9.2959 25.1437 10.093 25.1437 11.0766C25.1437 12.06 25.9415 12.8578 26.9249 12.8578C27.9083 12.8578 28.7062 12.06 28.7062 11.0766C28.7062 10.0932 27.9083 9.2953 26.9249 9.2953V9.2959ZM19.0013 11.3771C14.7916 11.3771 11.3785 14.7903 11.3785 19.0001C11.3785 23.21 14.7916 26.6215 19.0013 26.6215C23.2112 26.6215 26.6232 23.21 26.6232 19.0001C26.6232 14.7905 23.2109 11.3771 19.001 11.3771H19.0013ZM19.0013 14.0521C21.7339 14.0521 23.9494 16.2673 23.9494 19.0001C23.9494 21.7327 21.7339 23.9482 19.0013 23.9482C16.2686 23.9482 14.0535 21.7327 14.0535 19.0001C14.0535 16.2673 16.2686 14.0521 19.0013 14.0521Z" fill="white"/>
</g>
<defs>
<radialGradient id="paint0_radial_295_71" cx="0" cy="0" r="1" gradientUnits="userSpaceOnUse" gradientTransform="translate(10.0937 40.9267) rotate(-90) scale(37.6608 35.0275)">
<stop stop-color="#FFDD55"/>
<stop offset="0.1" stop-color="#FFDD55"/>
<stop offset="0.5" stop-color="#FF543E"/>
<stop offset="1" stop-color="#C837AB"/>
</radialGradient>
<radialGradient id="paint1_radial_295_71" cx="0" cy="0" r="1" gradientUnits="userSpaceOnUse" gradientTransform="translate(-6.36515 2.73734) rotate(78.681) scale(16.8346 69.3927)">
<stop stop-color="#3771C8"/>
<stop offset="0.128" stop-color="#3771C8"/>
<stop offset="1" stop-color="#6600FF" stop-opacity="0"/>
</radialGradient>
<clipPath id="clip0_295_71">
<rect width="38" height="38" fill="white"/>
</clipPath>
</defs>
</svg>
