<svg width="30" height="31" viewBox="0 0 30 31" fill="none" xmlns="http://www.w3.org/2000/svg">
<g clip-path="url(#clip0_464_1391)">
<path fill-rule="evenodd" clip-rule="evenodd" d="M23.4375 11.7499C23.4414 13.5578 22.8607 15.3185 21.7819 16.7693L15 25.8124L8.21813 16.7693C7.42407 15.6965 6.89586 14.4506 6.67686 13.134C6.45786 11.8174 6.55433 10.4676 6.95834 9.19555C7.36235 7.92346 8.06239 6.76537 9.00093 5.8164C9.93948 4.86743 11.0898 4.15465 12.3573 3.73662C13.6249 3.31858 14.9735 3.20721 16.2924 3.41165C17.6114 3.6161 18.863 4.13053 19.9445 4.91268C21.026 5.69484 21.9065 6.72241 22.5138 7.91098C23.121 9.09956 23.4376 10.4152 23.4375 11.7499ZM26.25 11.7499C26.25 14.2624 25.4269 16.5799 24.0375 18.4512L16.7569 28.1562L15 30.4999L13.2413 28.1562L5.9625 18.4512C4.90254 17.0213 4.19695 15.3604 3.90372 13.6049C3.61049 11.8493 3.73799 10.0493 4.27573 8.35257C4.81347 6.65588 5.74611 5.11098 6.99703 3.84483C8.24794 2.57868 9.78142 1.62739 11.4715 1.06914C13.1615 0.510894 14.9599 0.36161 16.7189 0.633558C18.4779 0.905505 20.1472 1.59092 21.5898 2.63349C23.0323 3.67606 24.2069 5.04603 25.0171 6.63084C25.8272 8.21564 26.2498 9.97006 26.25 11.7499ZM15 15.4999C15.9946 15.4999 16.9484 15.1048 17.6517 14.4016C18.3549 13.6983 18.75 12.7445 18.75 11.7499C18.75 10.7554 18.3549 9.80154 17.6517 9.09827C16.9484 8.39501 15.9946 7.99992 15 7.99992C14.0054 7.99992 13.0516 8.39501 12.3484 9.09827C11.6451 9.80154 11.25 10.7554 11.25 11.7499C11.25 12.7445 11.6451 13.6983 12.3484 14.4016C13.0516 15.1048 14.0054 15.4999 15 15.4999Z" fill="white"/>
</g>
<defs>
<clipPath id="clip0_464_1391">
<rect width="30" height="30" fill="white" transform="translate(0 0.5)"/>
</clipPath>
</defs>
</svg>
