<svg width="70" height="70" viewBox="0 0 70 70" fill="none" xmlns="http://www.w3.org/2000/svg">
<path d="M50.3125 2.1875L37.1875 15.3125L40.2828 18.3794L48.125 10.5394V45.9375H21.875V21.875H17.5V45.9375C17.5 48.3503 19.4622 50.3125 21.875 50.3125H48.125C50.5378 50.3125 52.5 48.3503 52.5 45.9375V10.5328L60.3444 18.3794L63.4375 15.3125L50.3125 2.1875Z" fill="#FFBB00"/>
<path d="M40.4688 41.5625H29.5313C27.7222 41.5625 26.25 40.0903 26.25 38.2812V27.3438C26.25 25.5347 27.7222 24.0625 29.5313 24.0625H40.4688C42.2778 24.0625 43.75 25.5347 43.75 27.3438V38.2812C43.75 40.0903 42.2778 41.5625 40.4688 41.5625ZM30.625 37.1875H39.375V28.4375H30.625V37.1875ZM35 67.8125V63.4375C50.68 63.4375 63.4375 50.68 63.4375 35C63.4375 32.2328 63.0416 29.5006 62.2606 26.8734L66.4541 25.6266C67.3531 28.6562 67.8125 31.8106 67.8125 35C67.8125 53.0928 53.0928 67.8125 35 67.8125ZM3.54595 44.3734C2.64254 41.331 2.18496 38.1737 2.18751 35C2.18751 16.9072 16.9072 2.1875 35 2.1875V6.5625C19.32 6.5625 6.56251 19.32 6.56251 35C6.56251 37.7672 6.95845 40.4994 7.73939 43.1266L3.54595 44.3734Z" fill="#FFBB00"/>
</svg>
