<svg width="71" height="70" viewBox="0 0 71 70" fill="none" xmlns="http://www.w3.org/2000/svg">
<path d="M50.8125 2.1875L37.6875 15.3125L40.7828 18.3794L48.625 10.5394V45.9375H22.375V21.875H18V45.9375C18 48.3503 19.9622 50.3125 22.375 50.3125H48.625C51.0378 50.3125 53 48.3503 53 45.9375V10.5328L60.8444 18.3794L63.9375 15.3125L50.8125 2.1875Z" fill="#013402"/>
<path d="M40.9688 41.5625H30.0313C28.2222 41.5625 26.75 40.0903 26.75 38.2812V27.3438C26.75 25.5347 28.2222 24.0625 30.0313 24.0625H40.9688C42.7778 24.0625 44.25 25.5347 44.25 27.3438V38.2812C44.25 40.0903 42.7778 41.5625 40.9688 41.5625ZM31.125 37.1875H39.875V28.4375H31.125V37.1875ZM35.5 67.8125V63.4375C51.18 63.4375 63.9375 50.68 63.9375 35C63.9375 32.2328 63.5416 29.5006 62.7606 26.8734L66.9541 25.6266C67.8531 28.6562 68.3125 31.8106 68.3125 35C68.3125 53.0928 53.5928 67.8125 35.5 67.8125ZM4.04595 44.3734C3.14254 41.331 2.68496 38.1737 2.68751 35C2.68751 16.9072 17.4072 2.1875 35.5 2.1875V6.5625C19.82 6.5625 7.06251 19.32 7.06251 35C7.06251 37.7672 7.45845 40.4994 8.23939 43.1266L4.04595 44.3734Z" fill="#013402"/>
</svg>
