<svg width="80" height="80" viewBox="0 0 80 80" fill="none" xmlns="http://www.w3.org/2000/svg">
<circle cx="40" cy="40" r="40" fill="#FFBB00"/>
<circle cx="40" cy="40" r="35" fill="#013402"/>
<g clip-path="url(#clip0_278_1780)">
<path fill-rule="evenodd" clip-rule="evenodd" d="M48.4375 36.25C48.4414 38.0579 47.8607 39.8186 46.7819 41.2694L40 50.3125L33.2181 41.2694C32.4241 40.1966 31.8959 38.9507 31.6769 37.6341C31.4579 36.3175 31.5543 34.9677 31.9583 33.6956C32.3624 32.4235 33.0624 31.2654 34.0009 30.3165C34.9395 29.3675 36.0898 28.6547 37.3573 28.2367C38.6249 27.8186 39.9735 27.7073 41.2924 27.9117C42.6114 28.1162 43.863 28.6306 44.9445 29.4127C46.026 30.1949 46.9065 31.2225 47.5138 32.411C48.121 33.5996 48.4376 34.9153 48.4375 36.25ZM51.25 36.25C51.25 38.7625 50.4269 41.08 49.0375 42.9512L41.7569 52.6562L40 55L38.2413 52.6562L30.9625 42.9512C29.9025 41.5214 29.197 39.8605 28.9037 38.1049C28.6105 36.3494 28.738 34.5493 29.2757 32.8526C29.8135 31.1559 30.7461 29.611 31.997 28.3449C33.2479 27.0787 34.7814 26.1275 36.4715 25.5692C38.1615 25.011 39.9599 24.8617 41.7189 25.1336C43.4779 25.4056 45.1472 26.091 46.5898 27.1336C48.0323 28.1761 49.2069 29.5461 50.0171 31.1309C50.8272 32.7157 51.2498 34.4701 51.25 36.25ZM40 40C40.9946 40 41.9484 39.6049 42.6517 38.9016C43.3549 38.1984 43.75 37.2445 43.75 36.25C43.75 35.2554 43.3549 34.3016 42.6517 33.5983C41.9484 32.8951 40.9946 32.5 40 32.5C39.0054 32.5 38.0516 32.8951 37.3484 33.5983C36.6451 34.3016 36.25 35.2554 36.25 36.25C36.25 37.2445 36.6451 38.1984 37.3484 38.9016C38.0516 39.6049 39.0054 40 40 40Z" fill="white"/>
</g>
<defs>
<clipPath id="clip0_278_1780">
<rect width="30" height="30" fill="white" transform="translate(25 25)"/>
</clipPath>
</defs>
</svg>
