<svg width="30" height="30" viewBox="0 0 30 30" fill="none" xmlns="http://www.w3.org/2000/svg">
<path d="M24.3002 16.25C24.0252 16.25 23.7377 16.1625 23.4627 16.1C22.9059 15.9772 22.3586 15.8143 21.8252 15.6125C21.2454 15.4015 20.6079 15.4124 20.0356 15.6432C19.4633 15.874 18.9966 16.3083 18.7252 16.8625L18.4502 17.425C17.2327 16.7477 16.114 15.9065 15.1252 14.925C14.1437 13.9362 13.3025 12.8175 12.6252 11.6L13.1502 11.25C13.7045 10.9786 14.1387 10.5119 14.3695 9.93957C14.6003 9.36727 14.6112 8.72985 14.4002 8.14996C14.2018 7.61548 14.0389 7.06845 13.9127 6.51246C13.8502 6.23746 13.8002 5.94996 13.7627 5.66246C13.611 4.78198 13.1498 3.98463 12.4623 3.41401C11.7748 2.84338 10.9061 2.53697 10.0127 2.54996H6.26275C5.72404 2.5449 5.19056 2.65597 4.69864 2.87562C4.20671 3.09527 3.76789 3.41833 3.41204 3.82281C3.05619 4.22729 2.79167 4.7037 2.63648 5.2196C2.4813 5.7355 2.4391 6.27878 2.51275 6.81246C3.17867 12.0492 5.57028 16.9148 9.30981 20.6408C13.0493 24.3667 17.9236 26.7406 23.1627 27.3875H23.6377C24.5595 27.3888 25.4495 27.0506 26.1377 26.4375C26.5332 26.0838 26.8491 25.6502 27.0646 25.1654C27.2801 24.6805 27.3902 24.1555 27.3877 23.625V19.875C27.3724 19.0067 27.0563 18.1706 26.4932 17.5095C25.9301 16.8484 25.155 16.4032 24.3002 16.25ZM24.9252 23.75C24.925 23.9274 24.887 24.1028 24.8137 24.2645C24.7404 24.4261 24.6336 24.5703 24.5002 24.6875C24.361 24.8087 24.1977 24.8992 24.0211 24.9531C23.8445 25.0069 23.6585 25.0229 23.4752 25C18.7939 24.3997 14.4455 22.2581 11.1161 18.9128C7.78674 15.5676 5.66576 11.2091 5.08775 6.52496C5.06785 6.34185 5.08529 6.15662 5.139 5.98045C5.19271 5.80427 5.28158 5.64082 5.40025 5.49996C5.51739 5.36662 5.66157 5.25976 5.82322 5.18648C5.98487 5.1132 6.16027 5.07518 6.33775 5.07496H10.0877C10.3784 5.06849 10.6623 5.16356 10.8904 5.3438C11.1186 5.52403 11.2768 5.77817 11.3377 6.06246C11.3877 6.40412 11.4502 6.74162 11.5252 7.07496C11.6696 7.73389 11.8618 8.38143 12.1002 9.01246L10.3502 9.82496C10.2006 9.89361 10.066 9.99114 9.95419 10.112C9.84236 10.2328 9.7555 10.3745 9.69859 10.529C9.64167 10.6834 9.61584 10.8476 9.62256 11.0121C9.62928 11.1766 9.66842 11.3381 9.73775 11.4875C11.5367 15.3409 14.6343 18.4385 18.4877 20.2375C18.7921 20.3625 19.1334 20.3625 19.4377 20.2375C19.5936 20.1817 19.7369 20.0955 19.8592 19.9839C19.9815 19.8724 20.0805 19.7376 20.1502 19.5875L20.9252 17.8375C21.5715 18.0686 22.231 18.2606 22.9002 18.4125C23.2336 18.4875 23.5711 18.55 23.9127 18.6C24.197 18.6609 24.4512 18.8191 24.6314 19.0473C24.8116 19.2754 24.9067 19.5593 24.9002 19.85L24.9252 23.75Z" fill="white"/>
</svg>
