<svg width="60" height="60" viewBox="0 0 60 60" fill="none" xmlns="http://www.w3.org/2000/svg">
<path d="M33.75 45H10V30H35.75C38.25 27 42 25 46.25 25C49.5 25 52.5 26.25 55 28.25V15C55 13.6739 54.4732 12.4021 53.5355 11.4645C52.5979 10.5268 51.3261 10 50 10H10C8.67392 10 7.40215 10.5268 6.46447 11.4645C5.52678 12.4021 5 13.6739 5 15V45C5 46.3261 5.52678 47.5979 6.46447 48.5355C7.40215 49.4732 8.67392 50 10 50H36.5C35.5 48.5 34.5 46.75 33.75 45ZM10 15H50V20H10V15ZM46.25 30C41.5 30 37.5 34 37.5 38.75C37.5 45.25 46.25 55 46.25 55C46.25 55 55 45.25 55 38.75C55 34 51 30 46.25 30ZM46.25 42C44.5 42 43.25 40.5 43.25 39C43.25 37.25 44.75 36 46.25 36C47.75 36 49.25 37.5 49.25 39C49.5 40.5 48 42 46.25 42Z" fill="#252525"/>
</svg>
