<svg width="71" height="70" viewBox="0 0 71 70" fill="none" xmlns="http://www.w3.org/2000/svg">
<path d="M35.5 4.375L9.25 13.125V39.375C9.25 53.874 21.001 65.625 35.5 65.625C49.999 65.625 61.75 53.874 61.75 39.375V13.125L35.5 4.375ZM56.8281 39.375C56.8281 51.1533 47.2783 60.7031 35.5 60.7031C23.7217 60.7031 14.1719 51.1533 14.1719 39.375V16.8164L35.5 9.29688L56.8281 16.8164V39.375Z" fill="#013402"/>
<path d="M26.367 32.4775C26.1389 32.2484 25.8678 32.0666 25.5692 31.9425C25.2707 31.8185 24.9506 31.7546 24.6272 31.7546C24.3039 31.7546 23.9838 31.8185 23.6853 31.9425C23.3867 32.0666 23.1156 32.2484 22.8875 32.4775C22.6584 32.7056 22.4765 32.9767 22.3525 33.2753C22.2284 33.5739 22.1646 33.894 22.1646 34.2173C22.1646 34.5406 22.2284 34.8607 22.3525 35.1593C22.4765 35.4578 22.6584 35.7289 22.8875 35.957L31.7332 44.8027L31.8768 44.9463C32.0925 45.1624 32.3488 45.3339 32.6309 45.4509C32.913 45.568 33.2154 45.6282 33.5208 45.6282C33.8262 45.6282 34.1286 45.568 34.4107 45.4509C34.6928 45.3339 34.9491 45.1624 35.1648 44.9463L50.4432 29.668C50.6593 29.4522 50.8308 29.196 50.9478 28.9139C51.0648 28.6317 51.1251 28.3293 51.1251 28.0239C51.1251 27.7185 51.0648 27.4161 50.9478 27.134C50.8308 26.8519 50.6593 26.5956 50.4432 26.3799L50.2518 26.1885C50.036 25.9723 49.7797 25.8008 49.4976 25.6838C49.2155 25.5668 48.9131 25.5066 48.6077 25.5066C48.3023 25.5066 47.9999 25.5668 47.7178 25.6838C47.4357 25.8008 47.1794 25.9723 46.9637 26.1885L33.5174 39.6279L26.367 32.4775Z" fill="#252525"/>
</svg>
