<svg width="71" height="70" viewBox="0 0 71 70" fill="none" xmlns="http://www.w3.org/2000/svg">
<path d="M35.5 4.375L9.25 13.125V39.375C9.25 53.874 21.001 65.625 35.5 65.625C49.999 65.625 61.75 53.874 61.75 39.375V13.125L35.5 4.375ZM56.8281 39.375C56.8281 51.1533 47.2783 60.7031 35.5 60.7031C23.7217 60.7031 14.1719 51.1533 14.1719 39.375V16.8164L35.5 9.29688L56.8281 16.8164V39.375Z" fill="#FFBB00"/>
<path d="M26.3675 32.4775C26.1394 32.2484 25.8683 32.0666 25.5697 31.9425C25.2712 31.8185 24.951 31.7546 24.6277 31.7546C24.3044 31.7546 23.9843 31.8185 23.6857 31.9425C23.3872 32.0666 23.1161 32.2484 22.888 32.4775C22.6589 32.7056 22.477 32.9767 22.353 33.2753C22.2289 33.5739 22.165 33.894 22.165 34.2173C22.165 34.5406 22.2289 34.8607 22.353 35.1593C22.477 35.4578 22.6589 35.7289 22.888 35.957L31.7337 44.8027L31.8772 44.9463C32.093 45.1624 32.3493 45.3339 32.6314 45.4509C32.9135 45.568 33.2159 45.6282 33.5213 45.6282C33.8267 45.6282 34.1291 45.568 34.4112 45.4509C34.6933 45.3339 34.9496 45.1624 35.1653 44.9463L50.4437 29.668C50.6598 29.4522 50.8313 29.196 50.9483 28.9139C51.0653 28.6317 51.1255 28.3293 51.1255 28.0239C51.1255 27.7185 51.0653 27.4161 50.9483 27.134C50.8313 26.8519 50.6598 26.5956 50.4437 26.3799L50.2522 26.1885C50.0365 25.9723 49.7802 25.8008 49.4981 25.6838C49.216 25.5668 48.9136 25.5066 48.6082 25.5066C48.3028 25.5066 48.0004 25.5668 47.7183 25.6838C47.4362 25.8008 47.1799 25.9723 46.9642 26.1885L33.5179 39.6279L26.3675 32.4775Z" fill="white"/>
</svg>
