<svg width="38" height="31" viewBox="0 0 38 31" fill="none" xmlns="http://www.w3.org/2000/svg">
<path d="M38 3.65296C36.577 4.28286 35.0677 4.69633 33.5222 4.87961C35.132 3.91549 36.3681 2.38878 36.9501 0.569718C35.4198 1.47715 33.7455 2.11649 31.9996 2.46012C30.5774 0.946168 28.5514 0 26.3089 0C22.0033 0 18.5125 3.48802 18.5125 7.79005C18.5125 8.4007 18.5816 8.99519 18.7144 9.5655C12.2351 9.24052 6.49058 6.13919 2.6453 1.426C1.97437 2.57656 1.58991 3.9149 1.58991 5.34238C1.58991 8.04517 2.96638 10.4295 5.05816 11.8266C3.82011 11.7878 2.60931 11.4537 1.52683 10.8521C1.52638 10.8847 1.52638 10.9173 1.52638 10.9501C1.52638 14.7246 4.2137 17.8732 7.78005 18.5889C6.63202 18.9009 5.42781 18.9465 4.25941 18.7224C5.25142 21.8173 8.13066 24.0695 11.5421 24.1325C8.87389 26.2218 5.51223 27.4673 1.85977 27.4673C1.2304 27.4673 0.60993 27.4304 0 27.3585C3.45013 29.5688 7.54805 30.8585 11.9507 30.8585C26.2908 30.8585 34.1323 18.9879 34.1323 8.6935C34.1323 8.35561 34.1249 8.01966 34.1098 7.68563C35.636 6.5831 36.9534 5.21751 38 3.65296Z" fill="#55ACEE"/>
</svg>
