<svg width="50" height="50" viewBox="0 0 50 50" fill="none" xmlns="http://www.w3.org/2000/svg">
<path d="M39.6872 10.2291C37.7772 8.29981 35.5021 6.7701 32.9948 5.72923C30.4874 4.68837 27.7978 4.15717 25.083 4.16663C13.708 4.16663 4.43717 13.4375 4.43717 24.8125C4.43717 28.4583 5.39551 32 7.18717 35.125L4.27051 45.8333L15.208 42.9583C18.2288 44.6041 21.6247 45.4791 25.083 45.4791C36.458 45.4791 45.7288 36.2083 45.7288 24.8333C45.7288 19.3125 43.583 14.125 39.6872 10.2291ZM25.083 41.9791C21.9997 41.9791 18.9788 41.1458 16.333 39.5833L15.708 39.2083L9.20801 40.9166L10.9372 34.5833L10.5205 33.9375C8.80748 31.202 7.89788 28.04 7.89551 24.8125C7.89551 15.3541 15.6038 7.64579 25.0622 7.64579C29.6455 7.64579 33.958 9.43746 37.1872 12.6875C38.7861 14.2791 40.0532 16.1722 40.9151 18.2571C41.7769 20.342 42.2164 22.5773 42.208 24.8333C42.2497 34.2916 34.5413 41.9791 25.083 41.9791ZM34.4997 29.1458C33.9788 28.8958 31.4372 27.6458 30.9788 27.4583C30.4997 27.2916 30.1663 27.2083 29.8122 27.7083C29.458 28.2291 28.4788 29.3958 28.1872 29.7291C27.8955 30.0833 27.583 30.125 27.0622 29.8541C26.5413 29.6041 24.8747 29.0416 22.9163 27.2916C21.3747 25.9166 20.3538 24.2291 20.0413 23.7083C19.7497 23.1875 19.9997 22.9166 20.2705 22.6458C20.4997 22.4166 20.7913 22.0416 21.0413 21.75C21.2913 21.4583 21.3955 21.2291 21.5622 20.8958C21.7288 20.5416 21.6455 20.25 21.5205 20C21.3955 19.75 20.3538 17.2083 19.9372 16.1666C19.5205 15.1666 19.083 15.2916 18.7705 15.2708H17.7705C17.4163 15.2708 16.8747 15.3958 16.3955 15.9166C15.9372 16.4375 14.6038 17.6875 14.6038 20.2291C14.6038 22.7708 16.458 25.2291 16.708 25.5625C16.958 25.9166 20.3538 31.125 25.5205 33.3541C26.7497 33.8958 27.708 34.2083 28.458 34.4375C29.6872 34.8333 30.8122 34.7708 31.708 34.6458C32.708 34.5 34.7705 33.3958 35.1872 32.1875C35.6247 30.9791 35.6247 29.9583 35.4788 29.7291C35.333 29.5 35.0205 29.3958 34.4997 29.1458Z" fill="white"/>
</svg>
